<?xml version="1.0" standalone="no"?>
<!DOCTYPE svg PUBLIC "-//W3C//DTD SVG 20010904//EN"
 "http://www.w3.org/TR/2001/REC-SVG-20010904/DTD/svg10.dtd">
<svg version="1.0" xmlns="http://www.w3.org/2000/svg"
 width="180.000000pt" height="180.000000pt" viewBox="0 0 180.000000 180.000000"
 preserveAspectRatio="xMidYMid meet">

<g transform="translate(0.000000,180.000000) scale(0.100000,-0.100000)"
fill="#000000" stroke="none">
<path d="M840 1443 c-70 -4 -188 -23 -241 -39 l-49 -15 0 -127 c0 -140 10
-219 35 -278 l16 -39 15 35 c10 21 14 51 10 74 -3 24 1 54 10 75 18 44 63 103
73 97 4 -3 5 8 3 24 -6 42 5 78 28 90 17 9 24 6 44 -15 17 -19 33 -25 63 -25
22 0 64 -4 93 -10 42 -8 56 -7 73 5 12 8 30 15 39 15 25 0 41 -45 27 -72 -8
-14 -8 -23 0 -31 6 -6 11 -20 11 -31 0 -20 -1 -20 -16 2 -15 22 -48 30 -59 13
-7 -13 15 -61 29 -61 6 0 5 5 -2 12 -17 17 -15 38 3 38 8 0 22 -17 32 -37 22
-47 20 -159 -4 -185 -20 -22 -39 -23 -46 -3 -5 12 -10 12 -34 0 -15 -8 -45
-15 -65 -15 -41 0 -68 26 -69 70 l0 25 -11 -22 c-6 -13 -15 -23 -19 -23 -21 0
-66 24 -81 43 l-18 22 0 -25 c0 -14 -12 -43 -25 -65 -41 -67 -32 -114 34 -173
49 -45 155 -115 157 -105 1 4 5 20 8 35 6 28 61 98 77 98 5 0 9 -8 9 -19 0
-27 25 -45 47 -33 34 18 140 137 163 182 40 78 50 136 50 292 l0 147 -52 16
c-95 28 -250 45 -358 38z m200 -523 c0 -25 -79 -40 -110 -20 -13 9 -13 11 0
20 19 13 110 13 110 0z"/>
<path d="M737 1313 c-12 -11 -8 -68 6 -87 12 -16 14 -16 32 4 19 21 19 22 0
56 -18 34 -26 40 -38 27z"/>
<path d="M1045 1271 c-16 -19 -17 -24 -5 -31 19 -12 33 2 28 30 l-3 22 -20
-21z"/>
<path d="M844 1185 c-22 -23 -26 -53 -4 -40 5 3 11 1 15 -5 3 -5 14 -10 23
-10 13 0 13 2 -4 14 -24 18 -7 39 27 34 17 -2 23 -9 21 -23 -3 -20 -2 -20 13
-1 13 18 13 21 -2 38 -23 25 -59 22 -89 -7z"/>
<path d="M1005 1053 c-31 -8 -42 -23 -16 -23 15 0 25 -7 28 -20 5 -20 6 -19
31 5 14 14 23 27 21 29 -9 8 -45 13 -64 9z"/>
<path d="M80 565 c0 -8 5 -15 10 -15 6 0 10 -35 10 -85 0 -50 -4 -85 -10 -85
-5 0 -10 -7 -10 -15 0 -11 12 -15 45 -15 32 0 45 4 45 14 0 8 -7 17 -16 20 -9
3 -14 15 -12 28 2 18 11 24 43 28 49 7 64 16 74 43 13 34 -7 74 -41 86 -48 17
-138 14 -138 -4z m124 -31 c31 -30 12 -64 -36 -64 -25 0 -28 3 -28 33 0 19 3
37 7 40 11 12 41 7 57 -9z"/>
<path d="M950 560 c-39 -39 -20 -93 40 -111 72 -22 82 -69 15 -69 -28 0 -35 4
-35 20 0 14 -7 20 -21 20 -17 0 -20 -5 -17 -32 3 -32 5 -33 52 -36 69 -4 92 3
105 36 19 45 -1 78 -61 98 -41 13 -49 20 -46 37 4 27 55 37 64 13 10 -26 44
-20 44 8 0 28 -16 36 -76 36 -31 0 -50 -6 -64 -20z"/>
<path d="M1143 539 c-3 -10 -9 -19 -14 -19 -5 0 -9 -7 -9 -15 0 -8 4 -15 10
-15 5 0 10 -28 12 -62 3 -54 6 -64 26 -74 13 -6 32 -9 43 -7 25 7 25 33 0 33
-23 0 -28 13 -27 65 1 34 5 41 24 43 31 5 28 32 -3 32 -19 0 -25 5 -23 16 4
24 -33 27 -39 3z"/>
<path d="M1453 540 c-3 -11 -9 -20 -14 -20 -5 0 -9 -7 -9 -15 0 -8 5 -15 10
-15 6 0 10 -23 10 -51 0 -69 12 -89 55 -89 24 0 35 5 35 15 0 8 -9 15 -20 15
-18 0 -20 7 -20 55 0 48 2 55 20 55 11 0 20 7 20 15 0 8 -8 15 -19 15 -10 0
-21 9 -24 20 -3 11 -13 20 -22 20 -9 0 -19 -9 -22 -20z"/>
<path d="M306 499 c-21 -16 -26 -29 -26 -63 0 -63 26 -86 95 -86 46 0 55 3 55
18 0 14 -7 17 -38 14 -28 -3 -42 1 -56 17 l-19 21 61 0 c61 0 62 0 62 28 0 63
-80 93 -134 51z m83 -22 c14 -18 4 -27 -31 -27 -26 0 -37 17 -21 33 11 12 40
8 52 -6z"/>
<path d="M470 505 c0 -8 5 -15 10 -15 6 0 10 -25 10 -55 0 -30 -4 -55 -10 -55
-5 0 -10 -7 -10 -15 0 -11 11 -15 40 -15 29 0 40 4 40 15 0 8 -4 15 -10 15
-16 0 -12 77 6 94 8 9 19 16 24 16 5 0 16 -7 24 -16 18 -17 22 -94 6 -94 -5 0
-10 -7 -10 -15 0 -11 11 -15 40 -15 29 0 40 4 40 15 0 8 -4 15 -10 15 -5 0
-10 21 -10 48 0 62 -21 92 -64 92 -17 0 -37 -5 -44 -12 -9 -9 -12 -9 -12 0 0
7 -13 12 -30 12 -20 0 -30 -5 -30 -15z"/>
<path d="M690 505 c0 -8 7 -15 15 -15 12 0 15 -13 15 -55 0 -30 -4 -55 -10
-55 -5 0 -10 -7 -10 -15 0 -11 11 -15 40 -15 29 0 40 4 40 15 0 8 -4 15 -10
15 -5 0 -10 20 -10 45 0 32 5 47 18 54 31 17 52 -5 52 -54 0 -25 -4 -45 -10
-45 -5 0 -10 -7 -10 -15 0 -11 12 -15 45 -15 44 0 45 1 33 23 -7 12 -11 28 -9
36 5 25 -9 80 -25 96 -19 18 -65 20 -83 3 -11 -10 -14 -10 -18 0 -7 18 -63 16
-63 -3z"/>
<path d="M1273 513 c-18 -7 -17 -53 1 -53 8 0 17 7 20 16 8 21 60 15 64 -8 2
-12 -3 -18 -16 -18 -32 0 -80 -21 -86 -37 -18 -47 35 -84 85 -59 16 8 29 10
29 5 0 -5 11 -9 25 -9 16 0 25 6 25 15 0 8 -4 15 -10 15 -5 0 -10 24 -10 53 0
66 -19 87 -76 86 -21 0 -45 -3 -51 -6z m87 -97 c0 -20 -16 -36 -36 -36 -23 0
-32 18 -17 33 7 8 53 10 53 3z"/>
<path d="M1581 494 c-12 -15 -21 -41 -21 -59 0 -18 9 -44 21 -59 18 -22 28
-26 75 -26 41 0 54 4 54 15 0 11 -11 15 -38 15 -36 0 -62 14 -62 32 0 4 24 8
53 8 30 0 56 3 59 6 10 9 -11 68 -29 82 -9 6 -34 12 -54 12 -29 0 -42 -6 -58
-26z m92 -18 c8 -19 -1 -26 -35 -26 -26 0 -37 17 -21 33 12 12 51 7 56 -7z"/>
</g>
</svg>
